<?xml version="1.0" encoding="utf-8"?>
<!-- Generator: Adobe Illustrator 25.2.0, SVG Export Plug-In . SVG Version: 6.00 Build 0)  -->
<svg version="1.1" id="Layer_1" xmlns="http://www.w3.org/2000/svg" xmlns:xlink="http://www.w3.org/1999/xlink" x="0px" y="0px"
	 viewBox="0 0 16 16" style="enable-background:new 0 0 16 16;" xml:space="preserve">
<style type="text/css">
	.st0{fill:#F8B93B;}
</style>
<g>
	<path class="st0" d="M15.9,6.5c-0.2,0.5-0.7,0.8-1,1.1c-0.9,0.8-1.7,1.5-2.6,2.3c-0.1,0.1-0.1,0.1-0.1,0.2c0.3,1.4,0.7,2.9,1,4.3
		c0.1,0.4,0,0.7-0.3,0.9c-0.3,0.2-0.6,0.2-1,0c-1.3-0.8-2.5-1.5-3.8-2.3C8,13,8,13,7.9,13.1c-1.2,0.8-2.5,1.5-3.7,2.2
		c-0.6,0.3-1.2,0-1.3-0.5c0-0.2,0-0.3,0-0.5c0.3-1.4,0.6-2.8,1-4.3c0-0.1,0-0.2-0.1-0.3C2.6,8.9,1.5,7.9,0.4,7
		C0.1,6.7,0,6.4,0.1,6.1c0.1-0.4,0.4-0.5,0.7-0.6c0.8-0.1,1.5-0.1,2.3-0.2c0.7-0.1,1.4-0.1,2.2-0.2c0.1,0,0.1-0.1,0.2-0.2
		c0.6-1.3,1.1-2.7,1.7-4C7.3,0.5,7.6,0.3,8,0.3c0.4,0,0.6,0.2,0.8,0.6c0.6,1.3,1.1,2.6,1.7,4c0.1,0.2,0.2,0.2,0.3,0.2
		c1.4,0.1,2.9,0.3,4.3,0.4c0.4,0,0.6,0.3,0.7,0.6c0,0,0,0,0,0C15.9,6.3,15.9,6.4,15.9,6.5z"/>
</g>
</svg>
