<?xml version="1.0" encoding="utf-8"?>
<!-- Generator: Adobe Illustrator 25.2.0, SVG Export Plug-In . SVG Version: 6.00 Build 0)  -->
<svg version="1.1" id="Layer_1" xmlns="http://www.w3.org/2000/svg" xmlns:xlink="http://www.w3.org/1999/xlink" x="0px" y="0px"
	 viewBox="0 0 16 16" style="enable-background:new 0 0 16 16;" xml:space="preserve">
<style type="text/css">
	.st0{fill:#F8B93B;}
	.st1{fill:#808080;}
</style>
<g>
	<path class="st0" d="M7.2,0.9C6.6,2.3,6,3.6,5.5,5c0,0.1-0.1,0.1-0.2,0.2C4.5,5.2,3.8,5.3,3.1,5.3C2.3,5.4,1.6,5.5,0.8,5.5
		C0.4,5.6,0.2,5.8,0,6.1c-0.1,0.4,0,0.7,0.3,0.9C1.4,8,2.5,9,3.7,10c0.1,0.1,0.1,0.2,0.1,0.3c-0.3,1.4-0.7,2.9-1,4.3
		c0,0.2,0,0.3,0,0.5c0.1,0.5,0.7,0.8,1.3,0.5c1.3-0.8,2.5-1.5,3.8-2.3c0,0,0.1,0,0.1,0V0.3C7.6,0.3,7.3,0.6,7.2,0.9z"/>
	<path class="st1" d="M11.9,15.5c0.3,0.2,0.7,0.2,1,0c0.3-0.2,0.4-0.6,0.3-0.9c-0.3-1.4-0.7-2.9-1-4.3c0-0.1,0-0.1,0.1-0.2
		c0.9-0.8,1.8-1.5,2.6-2.3c0.4-0.3,0.8-0.6,1-1.1c0-0.1,0-0.2,0-0.3c0,0,0,0,0,0c-0.1-0.4-0.4-0.6-0.8-0.7c-1.5-0.1-2.9-0.3-4.4-0.4
		c-0.2,0-0.2-0.1-0.3-0.2c-0.6-1.3-1.1-2.7-1.7-4C8.7,0.6,8.4,0.3,8,0.3c0,0,0,0,0,0v12.9c0,0,0.1,0,0.1,0
		C9.4,14,10.7,14.8,11.9,15.5z"/>
</g>
</svg>
