<?xml version="1.0" encoding="utf-8"?>
<!-- Generator: Adobe Illustrator 25.2.0, SVG Export Plug-In . SVG Version: 6.00 Build 0)  -->
<svg version="1.1" id="Layer_1" xmlns="http://www.w3.org/2000/svg" xmlns:xlink="http://www.w3.org/1999/xlink" x="0px" y="0px"
	 viewBox="0 0 100 45.4" style="enable-background:new 0 0 100 45.4;" xml:space="preserve">
<style type="text/css">
	.st0{fill:#FFC295;}
	.st1{fill:#DEAE80;}
	.st2{fill:#C68D67;}
	.st3{fill:#D4A476;}
	.st4{fill:#F6E2CA;}
	.st5{fill:#F4B68C;}
	.st6{fill:#D6A678;}
	.st7{fill:#FCC707;}
	.st8{fill:#FFEF08;}
	.st9{fill:#FFF33A;}
	.st10{fill:#DDA57F;}
	.st11{fill:#714DE1;}
	.st12{fill:#5C41CE;}
	.st13{fill:#FFFFFF;}
</style>
<g>
	<g>
		<path class="st0" d="M99.9,5.3c-14,0-23.8,0-23.8,0c-2.6-0.4-4.9-0.7-7-0.9c-0.1-0.1-0.3-0.1-0.5-0.1c-6-0.6-13.6-1.1-20.3-1
			c-4.3,0-11.2,0-14.1,0.5c-3.6,0.6-2.8,1.4-7.8,4.8c-3.3,2.2-8.5,3.9-10.7,7.2c-2.2,3.4-2.5,8.9-1.5,12.9c1,3.9,2.4,5.1,5,8.3
			c2,2.4,6-0.2,5.1-2.9c-0.3-0.9-0.5-1.5-0.7-2.1c-0.1-0.2-0.1-0.4-0.2-0.6s-0.2-0.5-0.4-0.8c-0.6-1.3-1.2-2.6-1.1-4
			c0-0.2,0-0.3,0.1-0.5c0.2-1.1,1-2.1,1.7-3c0.5-0.7,1.1-1.4,1.6-2.1c0.2-0.2,0.3-0.4,0.5-0.6c0.4-0.5,0.7-0.9,1.1-1.4
			c0.2-0.3,0.5-0.6,0.7-0.9c0.1,0,0.1,0.1,0.2,0.1c0.4,0.3,0.8,0.5,1.3,0.8c0.7,0.4,1.4,0.7,2.2,0.9c0.5,0.2,1,0.3,1.4,0.3
			c0.2,0,0.3,0,0.5,0.1c1,0.1,2,0,2.7-0.5c3.7-0.5,3.1-3.4,5.7-3c1.1,0.2,1.5,0.3,1.9,0.8c0.2,0.2,0.4,0.6,0.6,1
			c1.3,2.4,2.7,4.9,4,7.3c0.8,1.4,1.5,3.1,3,3.7c2.3,0.8,3.3,1.1,11.5-0.2c4.1-0.7,8-3.3,10.8-4.1c0.5-0.2,1-0.2,1.4-0.3
			c0.1,0,0.2,0,0.4,0c0.2,0,10.2,0.1,24.9,0.1L99.9,5.3z"/>
		<path class="st1" d="M55.3,36.1c1.7-0.8,3.9-1.1,4.7-2.8c0.2-0.4,0.3-1.5,0.4-2.8c0.1-1.6,0.1-3.4,0-3.9c-0.6-3.2-2.9-2.2-5.8-3.8
			c-1-0.5-2.3-0.9-3.3-0.2c-0.9,0.6,1.6,0.9,1.9,1.9c0.1,0.2,0.1,0.6,0.1,1.1c0,2.4-0.7,6.4-0.4,7.2c-0.7-1-0.5-1.3-0.7-2
			c-0.1-0.5-0.3-0.8-0.4-0.9c-1.1-2.1-2.3-4.1-2.9-6.2c-0.2-0.1-0.3-0.1-0.5-0.2l0,0c-0.1,0-0.2-0.1-0.3-0.1
			c-0.2-0.1-0.4-0.2-0.6-0.3c-0.9-0.3-1.9-0.5-2.6,0.1c-0.2,0.2-0.4,0.4-0.5,0.6c0.5,1.9,1.7,3.5,1.9,5.6c0,0.3,0.1,0.7,0.2,1.1
			c0.3,1.3,1.1,3,1.6,3.9c0.5,0.8,0.7,1.4,1.1,1.9c0.1,0.1,0.2,0.2,0.3,0.3c0.3,0.3,0.8,0.5,1.5,0.5C52.7,37.1,53.4,36.9,55.3,36.1z
			"/>
		<g>
			<path class="st2" d="M49.4,36.4c1.7-0.4,3.5-1.1,4.1-2.7c0.4-0.9,0.5-5.7,0.4-6.7c-0.1-0.6-0.3-1.1-0.5-1.4
				c-0.7,10.4-0.7,4.7-1.6,4.3c-1.1-2.1-2.3-4.1-2.9-6.2c-0.2-0.1-0.5-0.2-0.8-0.4c-1-0.5-2.3-0.9-3.3-0.2c-0.2,0.2-0.4,0.4-0.5,0.6
				c0.5,1.9,1.7,3.5,1.9,5.6c0.1,1.3,1.1,3.8,1.8,4.9C48.6,35.2,48.9,36,49.4,36.4z"/>
		</g>
		<path class="st1" d="M48.3,36.3c0.3-0.1,0.5-0.1,0.8-0.2c1.6-0.4,3.2-1.1,3.9-2.6c0-0.1,0.1-0.2,0.1-0.3c0.1-0.3,0.1-0.7,0.2-1.2
			c0-0.3,0.1-0.7,0.1-1.1c0.1-1.6,0.1-3.5,0-4.1l0,0c-0.5-2.9-2.5-2.4-5-3.4l0,0c-0.3-0.1-0.5-0.2-0.8-0.4c0,0-0.1,0-0.1-0.1
			c-1-0.5-2.2-0.8-3.1-0.1c-0.9,0.6-1,2-0.7,3s1.9,4.3,2.2,5.3c0,0.2-0.2,0.1-1.1-1c-1.5-2.9-3.2-5.5-3.3-8.7c0,0.1-0.2,0.4-0.3,0.6
			c-0.5-0.7-1.5-1.9-2.5-1.8c-0.9,0.1-1.3,1.2-1.4,2c-0.2,2.4,0.2,5.1,0.4,7.5c0,0,0,0,0,0.1c0,0.2,0,0.3,0,0.5c0,0.1,0,0.2,0,0.3
			c0.1,1.3,0.4,3.3,1,4.5l0,0c0,0,0,0.1,0.1,0.1c0.2,0.4,0.5,0.6,0.8,0.8c0.5,0.3,1,0.3,1.6,0.4c0.2,0,0.4,0,0.6,0
			c0.4,0,0.9,0,1.3,0C44.9,36.6,46.6,36.8,48.3,36.3z"/>
		<path class="st3" d="M44.9,28.8c0.2,0.5,0.4,1,0.6,1.5c0-0.1,0-0.2,0-0.2C45.6,29.6,45.3,29.2,44.9,28.8z"/>
		<g>
			<path class="st2" d="M41.8,36.4c0.1-0.2,0.2-0.4,0.4-0.6c0.1-0.1,0.2-0.2,0.2-0.3c1.6-2.2,2.4-3.4,2.8-4.2
				c0.1-0.2,0.1-0.3,0.2-0.4c-0.2-0.3-0.4-0.6-0.6-0.7c-0.3-0.7-0.7-1.3-1-2c-0.1,0-0.1,0-0.2-0.1c-1.5-0.4-3.1-0.1-4.3,0.8
				c-0.5,0.4-1.1,1-1.6,1.4c0,0.1,0,0.2,0,0.3c0.1,1.3,0.4,3.4,1,4.6C39.4,36.4,40.5,36.4,41.8,36.4z"/>
		</g>
		<g>
			<path class="st1" d="M39.4,39c0.8-0.7,1.2-1.7,1.8-2.7c0.1-0.2,0.2-0.4,0.4-0.6c0.1-0.1,0.2-0.2,0.2-0.3c1.6-2.2,2.4-3.4,2.8-4.2
				c0.2-0.5,0.3-0.7,0.3-1l0,0c0-0.1,0-0.1,0-0.2c0-0.6-0.4-1.1-1-1.5c-0.3-0.2-0.7-0.3-1-0.4c-1.5-0.4-3.1-0.1-4.3,0.8
				c-0.3,0.2-0.7,0.6-1,0.9c0,0,0,0-0.1,0.1c-0.4,0.4-0.7,0.7-1,0.7c-0.4,0-0.8-0.1-1.2-0.3c-1-0.4-2.1-1.2-2.6-2.1
				c-1.3-2.4-0.3-5.2,0.3-7.7c0-0.1,0-0.1,0-0.2c0-0.2,0.1-0.5,0.1-0.7c-1.8-0.3-3.2-0.3-4.3-0.5c-0.2,0-0.3-0.1-0.5-0.1
				c-0.3,0.4-0.7,1.1-1,1.9c-1,2.2-2,5.3-2.4,7.3c-0.2,0.9-0.3,1.8,0,2.6c0.2,0.7,0.6,0.8,1.1,1.2c0.1,0.1,0.2,0.2,0.3,0.3
				c5,5.8,8,7.4,9.2,7.8C37,40.4,38.4,39.9,39.4,39z"/>
			<path class="st4" d="M41.8,35.4c1.6-2.2,2.4-3.4,2.8-4.2c-0.2-0.2-0.8-0.5-1.6-0.4c-1.4,0.2-3,0.6-3.8,1.8
				c-0.5,0.7-0.9,2.2-0.3,3C39.7,36.4,41,36,41.8,35.4z"/>
		</g>
		<g>
			<path class="st5" d="M21.9,26.5c0-0.2,0-0.3,0.1-0.5c0.2-1.1,1-2.1,1.7-3c1-1.3,2.2-2.7,3.3-4.1c0.2-0.3,0.5-0.6,0.7-0.9
				c0.1,0,0.1,0.1,0.2,0.1c2.2,1.5,5.9,3,8.1,1.6c3.7-0.5,3.1-3.4,5.7-3c1.1,0.2,1.5,0.3,1.9,0.8c0-1.3-0.4-2.5-1.4-3.1
				C40,13,35.1,14,32.4,14.7c-2,0.5-13.4,5.8-13.5,5.8c-0.9,1.4-0.7,3.8,0.7,4.8C20.2,26,21,26.3,21.9,26.5z"/>
		</g>
		<path class="st6" d="M21.6,30.5c-2-0.1-4.4,0.1-5.8-1.3c-1.6-1.5-1.9-4.6-0.3-6.2c2-2,5.1-2.8,7.8-3.3c3-0.5,6.5-0.2,9.4-0.9
			c2.9-0.7,7-2.8,8.7-5.3c0.3,3.1,3.8,4.6,2.4,8c-2,4.8,8.9,7-4.5,6.8c-3.8,0-4.3,0.9-7.9,1.6C28.1,30.7,25.1,30.7,21.6,30.5z"/>
		<g>
			<path class="st3" d="M31.5,13.9c1.1,2.1,2.6,3.6,4.3,5.1l-0.9,0.4C33.4,18,32,15.9,31.5,13.9z"/>
			<path class="st3" d="M27.5,18.1c-0.9-0.7-1.6-1-3-4.3c0.4,1.8,1.3,3.6,2.5,5C27.2,18.5,27.3,18.4,27.5,18.1z"/>
			<path class="st3" d="M16.5,18.4c1.9,1.2,3.7,2.2,5.7,2.7l-0.4,0.7C20,21.3,18,19.9,16.5,18.4z"/>
		</g>
		<g>
			<path class="st2" d="M41.5,21.4c0,0.1-0.2,0.4-0.3,0.6c-0.5-0.7-1.5-1.9-2.5-1.8c-0.9,0.1-1.3,1.2-1.4,2
				c-0.2,2.4,0.2,5.1,0.4,7.5c0,0,0,0-0.1,0.1c0,0,0,0,0.1,0c0.5,0,1.1,0,1.8,0c1.3,0.1,3.4,0.2,5.5,0.4l0,0c0-0.1,0-0.1,0-0.2
				c0-0.6-0.4-1.1-1-1.5c-0.1-0.1-0.1-0.2-0.2-0.4C42.7,26.1,41.6,23.9,41.5,21.4z"/>
		</g>
		<g>
			<path class="st7" d="M27.1,34.1c-1.3,7.4-8.4,12.4-15.8,11.1C3.9,43.9-1.1,36.8,0.2,29.4C1.5,21.9,8.6,17,16,18.3
				C23.4,19.6,28.4,26.6,27.1,34.1z"/>
			<path class="st8" d="M26.4,34c-1.2,7.1-8,11.8-15.1,10.6s-11.8-8-10.6-15.1s8-11.8,15.1-10.6C23,20.1,27.7,26.9,26.4,34z"/>
			<path class="st7" d="M24.7,34.9c-1.8,6.1-8.2,9.7-14.3,7.9s-9.7-8.2-7.9-14.3s8.2-9.7,14.3-7.9C23,22.4,26.5,28.8,24.7,34.9z"/>
			<path class="st9" d="M14.9,30.4c-2.2-1.3-2.5-1.8-2.4-2.5s0.8-1.3,2.4-1.1c1.5,0.3,2.3,0.9,2.7,1.2l0.4,0.3l1.4-2.1L19,26
				c-0.8-0.6-1.7-1-2.8-1.3l0.4-2.1l-2.5-0.4l-0.4,2.3c-2.3,0.1-4,1.3-4.3,3.3c-0.4,2.4,1.5,3.8,3.6,5c1.6,0.9,2.2,1.7,2.1,2.6
				c-0.2,1-1.3,1.5-2.7,1.2c-1.1-0.2-2.3-0.7-3.1-1.4l-0.4-0.4L7.6,37l0.3,0.3c0.8,0.7,2,1.3,3.3,1.6l-0.4,2.2l2.5,0.4l0.4-2.3
				c2.7-0.1,4.3-1.8,4.6-3.4C18.5,33.5,17.5,32,14.9,30.4z"/>
		</g>
		<g>
			<path class="st2" d="M53.4,30.9c0.3,0,0.7,0,1.1,0.1c0.4,0,3.1-0.1,5.9-0.5c0.1-1.6,0.1-3.4,0-3.9c-0.6-3.2-2.9-2.2-5.8-3.8
				c-1-0.5-2.3-0.9-3.3-0.2c-0.9,0.6,1.6,0.9,1.9,1.9c0.1,0.2,0.1,0.6,0.1,1.1c0,0.4,0,0.8,0,1.2l0,0c-0.5-2.9-2.5-2.4-5-3.4l0,0
				c-0.1,0-0.2-0.1-0.3-0.1c-0.2-0.1-0.4-0.2-0.6-0.3c-1-0.5-2.2-0.8-3.1-0.1c-0.9,0.6-1,2-0.7,3c0.2,0.6,0.7,1.8,1.2,3
				c0.2,0.5,0.4,1,0.6,1.4c0.3,0,0.6,0,0.9,0.1c2.2,0.2,4.4,0.3,5.8,0.5c0.2,0,0.3,0,0.5,0C52.7,30.9,53,30.9,53.4,30.9L53.4,30.9z"
				/>
		</g>
		<path class="st10" d="M32.8,28.1c-1.3-2.4-0.3-5.2,0.3-7.7c0-0.1,0-0.1,0-0.2c-0.2,0-0.3,0.1-0.5,0.1c-1.7,0.4-3.4,0.4-5.1,0.5
			c-1,2.2-2,5.3-2.4,7.3c-0.1,0.6-0.2,1.3-0.2,1.9c0-0.1-0.1-0.1-0.1-0.2c-0.1-0.2-1.7,0.9-1.9,0.6c-0.6-1.3-1.2-2.6-1.1-4
			c0-0.2,0-0.3,0.1-0.5c0.2-1.1,1-2.1,1.7-3c0.5-0.7,1.1-1.4,1.6-2.1c-0.6,0-1.3,0.1-1.9,0.2c-2.7,0.4-5.8,1.3-7.8,3.3
			c-1.6,1.6-1.3,4.7,0.3,6.2c1.4,1.3,3.6,1.2,7.5,1.3c0.1,0,2.7,0,2.8,0c5.4-0.1,7.3-1.1,9.3-1.7C34.4,29.9,33.3,29.1,32.8,28.1z"/>
		<path class="st0" d="M39.4,29.2c3,0.2,10.3,0.7,13.3,1c0,0,0.7,0.1,1.8,0.1c0.6,0,5.8-0.2,9-1.2c5.3-1.5,8.4-4.8,9.1-10.6
			c0.4-3.2-0.2-8.1-0.5-9.7c-3.5-0.4-10.3,0.5-11.4-0.7C59.1,6.4,56.5,5.6,54,5c-3-0.8-6.4-1.5-8.9,0.2c-3,2.1-3.1,6.6-5.2,9.6
			c-4.5,6.7-11.1,4.9-16.5,5.8c-2.7,0.4-5.8,1.3-7.8,3.3c-1.6,1.6-1.3,4.7,0.3,6.2c1.4,1.3,3.6,1.2,7.5,1.3
			C34.7,31.6,34,28.9,39.4,29.2z"/>
		<g>
			<path class="st5" d="M39.4,29.2c3,0.2,10.3,0.7,13.3,1c0,0,0.7,0.1,1.8,0.1c0.6,0,5.8-0.2,9-1.2c1.7-0.5,3.6-1.1,5.4-2
				C65.8,28,62,28,58.8,28.5c-5,0.7-9.8,0.2-14.6-0.3s-9.8,0.3-14.3,1.6c-1.2,0.3-4.9,1.1-7.5,1c-2.5-0.1-4.9,0-6.6-0.9
				c1.4,1.3,3.6,1.2,7.5,1.3C34.7,31.6,34,28.9,39.4,29.2z"/>
		</g>
		<path class="st4" d="M23,29.2l-0.4-5.1c-0.1-0.6-0.5-1-1.1-1h-2.3c-2,0-3.7,1.6-3.7,3.6c0,2.4,1.7,3.9,3.6,3.9l2.9-0.2
			C22.6,30.4,23,29.8,23,29.2z"/>
	</g>
	
		<rect x="72.7" y="3" transform="matrix(0.9996 -2.815198e-02 2.815198e-02 0.9996 -0.3996 2.1146)" class="st11" width="4.4" height="24.5"/>
	<polygon class="st11" points="99.9,0 75.5,0.1 76.3,30.4 100,30.4 	"/>
	<polygon class="st12" points="99.9,15.3 72.7,15.3 73,27.6 76.2,27.5 76.3,30.4 100,30.4 	"/>
	<g>
		<path class="st13" d="M81.1,29c0.8,0.2,1.6-0.3,1.8-1.1c0.2-0.8-0.3-1.6-1.1-1.8c-0.8-0.2-1.6,0.3-1.8,1.1
			C79.8,28,80.3,28.8,81.1,29z"/>
		<path class="st13" d="M87.3,28.8c0.8,0.2,1.6-0.3,1.8-1.1c0.2-0.8-0.3-1.6-1.1-1.8c-0.8-0.2-1.6,0.3-1.8,1.1
			C86,27.9,86.5,28.7,87.3,28.8z"/>
	</g>
</g>
</svg>
