<svg id="SvgjsSvg1001" width="288" height="288" xmlns="http://www.w3.org/2000/svg" version="1.1" xmlns:xlink="http://www.w3.org/1999/xlink" xmlns:svgjs="http://svgjs.com/svgjs"><defs id="SvgjsDefs1002"></defs><g id="SvgjsG1008"><svg xmlns="http://www.w3.org/2000/svg" xmlns:svgjs="http://svgjs.com/svgjs" xmlns:xlink="http://www.w3.org/1999/xlink" width="288" height="288"><svg xmlns="http://www.w3.org/2000/svg" width="288" height="288" enable-background="new 0 0 512 512" viewBox="0 0 512 512"><path fill="#ffffff" d="M256.4,0.1c54.2,0,108.3-0.2,162.5,0.1c43.2,0.2,77.7,26,88.9,66c13.5,48.1-15.5,99-63.9,111.2		c-6.5,1.6-7.5,4.4-7.5,10.3c0.2,82.1,0.2,164.1,0.1,246.2c0,37.1-23.2,67.3-58.2,76c-6.3,1.5-13,2.2-19.5,2.2
		c-68.6,0.2-137.1,0.2-205.7,0.1c-44.1-0.1-77.5-33.5-77.6-77.7c-0.1-82.7-0.1-165.4,0.1-248.1c0-5.1-1.1-7.2-6.4-8.5
		C27.1,167.1-1.4,128.4,0.9,85.4C3.2,42.3,36,6.8,79.3,0.8C85,0,90.7,0.1,96.4,0.1C149.8,0,203.1,0.1,256.4,0.1z M436.9,139.6
		c2.1-0.6,3.4-0.9,4.5-1.3c30.6-12.5,41.5-51.3,21.9-78.2c-11.5-15.8-27.5-21.9-46.8-21.9c-106.2,0.2-212.4,0.1-318.6,0.1
		c-3.4,0-6.8,0-10.1,0.2c-24.3,1.1-44,19.3-48.3,44.4c-3.9,22.5,9.8,46.8,31.3,55.5c1.3,0.5,2.7,0.6,4.4,0.9c0-10,0-19.5,0-29.1
		c-2.4-0.5-4.7-0.9-6.9-1.5c-7.8-2.1-13.4-9-14-17c-0.6-7.6,3.8-15.4,11.1-18.3c3.4-1.4,7.4-1.8,11.1-1.8
		c119.7-0.1,239.5-0.1,359.2-0.1c1.5,0,3,0,4.4,0.1c9.4,0.8,16.6,7.7,17.6,17.1c1,8.9-5.1,17.6-14.1,20.1c-2.2,0.6-4.4,1-6.7,1.5
		C436.9,119.9,436.9,129.3,436.9,139.6z M235.6,321c0.5,0.3,0.9,0.5,1.4,0.8c0,2.3,0,4.6,0,6.9c0,35.4,0,70.8,0,106.2
		c0,6.2,1.5,11.8,6.2,16.1c5.8,5.3,12.7,6.7,20,3.7c8.1-3.4,11.9-9.8,11.9-18.5c0-36,0-72.1,0-108.1c0-2.2,0-4.4,0-7.9
		c2.5,2.3,4.1,3.7,5.5,5.1c9.3,9.3,18.4,18.7,27.9,27.8c8.2,8,19.7,8,27.3,0.4c7.4-7.5,7.4-19.4-0.6-27.4
		c-21.6-21.8-43.3-43.6-65.1-65.2c-8.4-8.3-19.3-8.5-27.7-0.2c-22.1,21.9-44.1,44-66,66.1c-4.9,5-6.7,11.2-4.7,18.2
		c4.2,14.6,21,18.9,32.3,8C214.7,342.4,225,331.6,235.6,321z M275,201.1c6.3,0,11.9,0.1,17.6,0c12.3-0.2,20.7-8.1,20.6-19.3
		c-0.1-11-8.2-18.6-20.3-18.8c-5.8-0.1-11.7,0-17.9,0c0-6.8,0.1-12.7,0-18.6c-0.2-11.4-8.2-19.6-18.9-19.7c-10.9-0.1-19,8.3-19.2,20
		c-0.1,5.9,0,11.7,0,18.4c-6.3,0-11.9-0.1-17.6,0c-12.5,0.2-20.7,7.9-20.7,19.1c0.1,11.2,8.5,18.9,20.9,19c5.6,0.1,11.2,0,17.3,0
		c0,6.3,0,11.8,0,17.3c0.1,12.3,7.8,21,18.9,21.1c11.2,0.1,19.1-8.7,19.2-21.4C275,212.6,275,207.1,275,201.1z" class="st0 color000 svgShape color714de1"></path></svg></svg></g></svg>