<svg id="SvgjsSvg1001" width="288" height="288" xmlns="http://www.w3.org/2000/svg" version="1.1" xmlns:xlink="http://www.w3.org/1999/xlink" xmlns:svgjs="http://svgjs.com/svgjs"><defs id="SvgjsDefs1002"></defs><g id="SvgjsG1008"><svg xmlns="http://www.w3.org/2000/svg" xmlns:svgjs="http://svgjs.com/svgjs" xmlns:xlink="http://www.w3.org/1999/xlink" width="288" height="288"><svg xmlns="http://www.w3.org/2000/svg" xmlns:svgjs="http://svgjs.com/svgjs" xmlns:xlink="http://www.w3.org/1999/xlink" width="288" height="288"><svg xmlns="http://www.w3.org/2000/svg" width="288" height="288" enable-background="new 0 0 512 512" viewBox="0 0 512 512"><path fill="#714de1" d="M454.9,213.6c-2.4,0-4.5,0-6.5,0c-25.7,0-51.5-0.1-77.2,0c-16.1,0.1-28.3,8.5-33,22.4		c-7.3,21.8,8.6,43.5,32.4,43.7c25.9,0.2,51.8,0.1,77.8,0.1c2,0,4.1,0,6.6,0c0,2.3,0,4,0,5.7c0,20.9,0,41.8,0,62.7		c0,10.9-3.1,14-14,14c-89.2,0-178.5,0-267.7,0c-35.3,0-70.6,0-105.9,0c-2.1,0-4.1,0-6.5,0c0-84,0-167.5,0-251.7c1.9,0,3.8,0,5.6,0
		c124.9,0,249.8,0,374.7,0c10.8,0,13.8,3.1,13.8,14.1c0,27.5,0,55.1,0,82.6C454.9,209.1,454.9,211,454.9,213.6z" class="st0 color000 svgShape color714de1 colorfff"></path><path fill="#714de1" d="M80.5,103.2c21.8-7.1,43.5-14.1,65.3-21.2c82.7-26.9,165.5-53.8,248.2-80.7c9.2-3,11.7-1.1,11.7,8.6
		c0,11.2-0.1,22.3,0.1,33.5c0,3.2-0.6,4.9-4.1,6c-58.8,18-117.5,36.2-176.3,54.3c-1.5,0.5-3.1,0.7-4.6,0.7c-46.3,0-92.5,0-138.8,0
		c-0.5,0-1-0.1-1.5-0.2C80.6,103.8,80.5,103.5,80.5,103.2z" class="st1 color000 svgShape color714de1 colorfff"></path><path fill="#714de1" d="M454.7,220.1c0,17.9,0,35.3,0,52.9c-1.3,0.2-2.4,0.4-3.6,0.4c-26.8,0-53.6,0.2-80.4,0
		c-19.7-0.2-32.6-18-26.3-35.8c4-11.2,13.8-17.7,27.3-17.8c26.1-0.1,52.2,0,78.3,0C451.4,219.9,452.8,220,454.7,220.1z" class="st2 color000 svgShape color714de1 colorfff"></path><path fill="#714de1" d="M405.5,54.7c0,16.8,0,32.9,0,49.3c-52.7,0-105.1,0-157.6,0c0-0.2-0.1-0.4-0.1-0.6
		C300.1,87.2,352.6,71,405.5,54.7z" class="st3 color000 svgShape color714de1 colorfff"></path><path fill="#714de1" d="M143.1,457.5c15.1,0,27,12.2,27,27.4c0,14.9-12.5,27.2-27.4,27.1c-15-0.1-27.1-12.5-27-27.5
		C115.8,469.4,127.9,457.4,143.1,457.5z" class="st4 color000 svgShape color714de1 colorfff"></path><path fill="#714de1" d="M345.3,484.4c0.1-15.1,12.3-27.1,27.4-27c15.1,0.2,27.1,12.4,26.9,27.5c-0.2,15-12.5,27.2-27.4,27.1
		C357.3,511.9,345.2,499.5,345.3,484.4z" class="st5 color000 svgShape color714de1 colorfff"></path><path fill="#714de1" d="M449.6,430.6c0.1-15,12.5-27.2,27.5-27c14.8,0.2,27,12.7,26.9,27.7c-0.1,15-12.5,27-27.6,26.9
		C461.3,458,449.5,445.8,449.6,430.6z" class="st6 color000 svgShape color714de1 colorfff"></path><path fill="#714de1" d="M65.8,431c0,15.1-12.1,27.1-27.3,27.1c-15,0-27.2-12.3-27.1-27.3c0.1-14.9,12.4-27.2,27.4-27.2
		C53.6,403.5,65.8,415.9,65.8,431z" class="st7 color000 svgShape color714de1 colorfff"></path><path fill="#714de1" d="M194.3,428.9c0-20.4,0-40,0-60c2.1-0.2,3.8-0.3,5.9-0.4c0,22.2,0,44,0,66.2c-41.5,0-82.9,0-124.8,0
		c0-1.8,0-3.6,0-5.8C114.9,428.9,154.2,428.9,194.3,428.9z" class="st8 color000 svgShape color714de1 colorfff"></path><path fill="#714de1" d="M315.1,368.8c2,0,3.6,0,5.8,0c0,19.9,0,39.5,0,59.9c40,0,79.5,0,119.2,0c0,2.4,0,4.1,0,6.1
		c-41.7,0-83.2,0-125,0C315.1,412.8,315.1,391.1,315.1,368.8z" class="st9 color000 svgShape color714de1 colorfff"></path><path fill="#714de1" d="M232.1,368.8c2.3,0,4,0,6,0c0,39.3,0,78.4,0,117.9c-19.9,0-39.7,0-59.8,0c0-1.9,0-3.5,0-5.7
		c17.8,0,35.4,0,53.8,0C232.1,443.4,232.1,406.2,232.1,368.8z" class="st10 color000 svgShape color714de1 colorfff"></path><path fill="#714de1" d="M277.3,368.8c1.9,0,3.6,0,5.8,0c0,37.3,0,74.4,0,111.9c18.2,0,35.9,0,53.8,0c0.1,2.2,0.2,3.9,0.3,5.9
		c-20,0-39.8,0-59.9,0C277.3,447.7,277.3,408.6,277.3,368.8z" class="st11 color000 svgShape color714de1 colorfff"></path></svg></svg></svg></g></svg>