<svg id="SvgjsSvg1001" width="288" height="288" xmlns="http://www.w3.org/2000/svg" version="1.1" xmlns:xlink="http://www.w3.org/1999/xlink" xmlns:svgjs="http://svgjs.com/svgjs"><defs id="SvgjsDefs1002"></defs><g id="SvgjsG1008"><svg xmlns="http://www.w3.org/2000/svg" xmlns:svgjs="http://svgjs.com/svgjs" xmlns:xlink="http://www.w3.org/1999/xlink" width="288" height="288"><svg xmlns="http://www.w3.org/2000/svg" width="288" height="288" enable-background="new 0 0 512 512" viewBox="0 0 512 512"><path fill="#ffffff" d="M110.8,169.9c97.7,0,194.7,0,292.1,0c0,2.3,0,4.4,0,6.4c0,88,0,176,0,264.1c0,35.2-23.1,58.5-58.1,58.5		c-58.8,0-117.5,0-176.3,0c-34.3,0-57.7-23.4-57.7-57.7c0-88.4,0-176.8,0-265.2C110.8,174,110.8,172.2,110.8,169.9z M292.7,289.4
		c8.3-0.8,15.2-5.6,17.8-13.1c2.7-7.6,0.4-16.4-6.7-20.6c-7.6-4.5-15.9-8-24.1-11.3c-2.9-1.2-4.6-2-5.3-5.4
		c-1.6-7.8-7.8-13.4-15.2-14.2c-7.7-0.9-15.3,1.7-17.6,8.8c-2.7,8.3-8.3,11.1-15.1,13.7c-2.4,0.9-4.6,2.6-6.8,4.1
		c-21.4,14.9-28.6,58.1,6.7,73.8c7.4,3.3,15.3,5.5,23.1,7.9c6.9,2.2,13.9,3.8,20.7,6.3c5.8,2.1,6.7,7.6,1.7,11.3
		c-3.2,2.3-7.6,3.6-11.5,3.9c-10.7,0.8-20.6-2.3-29.8-7.8c-9.6-5.7-20.6-3.2-25.9,5.6c-5.4,8.9-2.7,19.9,7.1,25.5
		c6.9,3.9,14.4,6.8,21.8,9.5c3.2,1.2,4.8,2.2,5.6,5.8c1.7,8.1,8.6,13.7,16.5,14.2c7.7,0.5,15.8-4,17.9-11.5c1.5-5.3,4.3-7.3,9.1-9
		c18.3-6.7,28.4-21.5,29-41c0.5-18.8-7.8-31.8-26.5-39.8c-7.1-3.1-14.7-4.9-22.2-7.2c-6.3-2-12.8-3.5-19-5.8
		c-6.4-2.4-7.2-8.5-1.3-12.4c3-2,7-3,10.7-3.3c10.3-0.7,19.9,2.1,28.8,7.4C285.3,286.7,289.2,287.9,292.7,289.4z" class="st0 color000 svgShape color714de1"></path><path fill="#ffffff" d="M512.4,132.9c-170.7,0-340.6,0-510.8,0c-0.1-1.6-0.4-3-0.4-4.5c0-16.4-0.1-32.8,0-49.1
		c0.2-32.1,23.9-55.9,56-55.9c133.1-0.1,266.1-0.1,399.2,0c32.1,0,55.8,23.8,56,55.9C512.5,96.9,512.4,114.6,512.4,132.9z
		 M403.5,59.9c-6.3,0-12.5-0.1-18.8,0c-10.3,0.3-18.2,8.1-18.2,18.1c-0.1,9.9,7.7,18.2,17.9,18.4c12.4,0.2,24.7,0.2,37.1,0
		c10.2-0.2,18-8.4,18-18.4c-0.1-9.9-8-17.9-18.2-18.1C415.3,59.8,409.4,59.9,403.5,59.9z" class="st1 color000 svgShape color714de1"></path><path fill="#ffffff" d="M73.9,280.1c-10.6-0.8-21.2-0.2-30.9-2.7c-23.5-5.9-38.4-21.7-40.8-45.8c-2-20.3-0.4-41-0.4-61.7
		c23.9,0,47.8,0,72.1,0C73.9,206.2,73.9,242.4,73.9,280.1z" class="st2 color000 svgShape color714de1"></path><path fill="#ffffff" d="M511.5,170c0,21.7,1.6,43.1-0.4,64.2c-2.4,24.8-25.2,43.8-50.2,45c-6.8,0.3-13.7,0-21,0c0-36.3,0-72.6,0-109.2
		C463.7,170,487.7,170,511.5,170z" class="st3 color000 svgShape color714de1"></path></svg></svg></g></svg>